<svg id="svg" xmlns="http://www.w3.org/2000/svg" viewBox="0 0 381.33 43.7"><defs><style>.cls-1{fill:#0464b4;}.cls-1,.cls-2,.cls-3,.cls-4{fill-rule:evenodd;}.cls-2{fill:#7cc444;}.cls-3{fill:#eb1c24;}.cls-4{fill:#345494;}</style></defs><title>logo</title><path id="path0" class="cls-1" d="M54.75.59C53.5.8,51.33,2.9,51.33,3.91a2.4,2.4,0,0,1-.24.64c-.14.26-.52,1.11-.85,1.89s-.91,2.13-1.29,3-.71,1.62-.71,1.66a21.17,21.17,0,0,1-1,2.29,10.8,10.8,0,0,0-.57,1.32,5.73,5.73,0,0,1-.32.8c-.18.37-.51,1.1-.75,1.61a7.21,7.21,0,0,0-.43,1.07,8.23,8.23,0,0,1-.49,1.15c-.44.92-1.84,4.11-2.46,5.6-.13.32-.38.88-.55,1.25s-.52,1.15-.76,1.75c-.48,1.2-1.93,4.54-2.41,5.58a28.75,28.75,0,0,0-1.33,3,5.73,5.73,0,0,1-.32.8c-.64,1.37-2.15,4.86-2.26,5.23l-.11.37h6.65L42,40.82c1-2.31,1.5-3.61,2.32-5.55.29-.68.64-1.57.78-2l.26-.7,10.51,0,10.51,0,.72,1.67c.4.91.72,1.72.72,1.78a6.68,6.68,0,0,0,.4,1c.22.49.62,1.41.89,2l1,2.46.55,1.29h6.83l-.1-.53A7.78,7.78,0,0,0,76.93,41c-.22-.47-.51-1.11-.65-1.43S75.57,38,75,36.69s-1.21-2.78-1.44-3.33l-.74-1.71c-.18-.39-.46-1-.63-1.42-1-2.41-1.27-3-1.61-3.71-.21-.45-.73-1.65-1.17-2.66s-.92-2.14-1.09-2.5c-.28-.66-1.31-3-1.73-4-.12-.28-.59-1.37-1-2.42-.84-1.92-1.7-3.91-2.17-5-.13-.32-.38-.88-.54-1.25-.63-1.42-2.15-4.9-2.76-6.33A16.3,16.3,0,0,0,59.28.65C59.11.42,56,.39,54.75.59m130.71,0a4.81,4.81,0,0,0-2,1.26,1,1,0,0,1-.33.48,1.71,1.71,0,0,0-.43.65c-.06.2-.28.73-.48,1.19s-.74,1.66-1.17,2.67L180,9.36l-.91,2.08c-.34.78-.75,1.72-.92,2.08L177.52,15a4.48,4.48,0,0,0-.35.9,11,11,0,0,1-.52,1.23,29,29,0,0,0-1.82,4.26.45.45,0,0,1-.18.35c-.28.17-.08,1.54.31,2.05a9.66,9.66,0,0,0,3.32,2l.89.3.5-1.1a9.52,9.52,0,0,0,.5-1.24,6.61,6.61,0,0,1,.4-1c.22-.49.6-1.37.85-2s.59-1.4.76-1.79a5,5,0,0,0,.32-.8c0-.09.63-1.57,1.35-3.19a4.71,4.71,0,0,0,.31-.83,5.68,5.68,0,0,1,.4-1c.22-.46.57-1.25.77-1.75l.76-1.83c.21-.51.47-1.16.58-1.46.24-.63.43-.58.59.17a3,3,0,0,0,.35.89A17.18,17.18,0,0,1,188.77,12c.14.37.38,1,.55,1.34a17.47,17.47,0,0,1,1.18,2.78,5,5,0,0,0,.4,1c.22.47.55,1.23.73,1.69l1.18,2.83c.46,1.1.88,2.17.94,2.38.13.46.34.47,3.18,0,3.56-.53,3.43-.32,2.12-3.34L198,18.36c-.16-.37-.49-1.16-.75-1.75s-.85-2-1.33-3.09-1.08-2.48-1.33-3.08-.55-1.31-.67-1.58-.46-1.06-.75-1.75-.66-1.55-.82-1.92-.47-1.08-.68-1.58-.61-1.43-.89-2L190.27.44l-2.17,0a16.2,16.2,0,0,0-2.64.15M2.56,1.19A4.37,4.37,0,0,0,.22,4C.06,4.64,0,9.52,0,23.9v19H6.33V29.14l5.79-.08c8.54-.12,11.5-.84,15.1-3.69,6-4.73,6.69-14.45,1.45-20.13a11.43,11.43,0,0,0-3.07-2.3A1.93,1.93,0,0,1,25,2.63a15.55,15.55,0,0,0-3.47-1.27C18.6.79,18.22.77,10.85.78H3.42l-.86.4m79,0a5.49,5.49,0,0,0-2.74,4.85v.37H92.17l0,18.21,0,18.21,3.13,0L98.5,43V6.44h5c6,0,6.58-.12,7.86-1.58a9.83,9.83,0,0,0,1.28-3.79c0-.28-.82-.3-15.12-.29H82.42l-.84.43m44,0a3.87,3.87,0,0,0-2.09,2.08l-.37.75,0,19.46,0,19.46h6.33V27.44h9.85l.34.58c.19.32.41.59.5.59a.16.16,0,0,1,.15.16,27.91,27.91,0,0,0,2.16,3,2.57,2.57,0,0,1,.25.36c.1.14.73,1,1.42,1.91l1.37,1.82.54.68c.22.28,1,1.33,1.75,2.33s1.44,1.93,1.55,2.07.5.64.85,1.13l.64.87h3.73c3.08,0,3.74,0,3.74-.23A21.93,21.93,0,0,0,156.25,40c-2-2.61-2.23-2.89-5.52-7.21-1.15-1.51-2.25-2.94-2.45-3.19l-.7-.91-1-1.4-.7-.93.62-.12c3.17-.57,7.26-3.45,8.68-6.1C158,14.7,156.55,7,152,3.89a9.43,9.43,0,0,1-.83-.61,14.47,14.47,0,0,0-3-1.4c-2.77-1-4.09-1.11-13.35-1.1h-8.43l-.88.41M18.5,6.68c2,.33,4.94,1.79,5.31,2.64a1.76,1.76,0,0,0,.35.42,7.39,7.39,0,0,1,1.49,3.72A8.19,8.19,0,0,1,20.5,22.6l-1.33.56a53.42,53.42,0,0,1-6.63.25l-6.21.06v-17h5.38a53.75,53.75,0,0,1,6.79.24m124.92,0c8.73,1.44,9.18,13,.58,15.09-1.78.43-3.24.51-8.79.51h-5.88V6.44h6.38a68.39,68.39,0,0,1,7.71.23M56.17,8a4,4,0,0,0,.31,1c.47,1.07,1.11,2.56,1.69,4,.29.69.63,1.49.76,1.78a3.25,3.25,0,0,1,.24.62,8.21,8.21,0,0,0,.4,1,25.16,25.16,0,0,1,1.26,3,6.17,6.17,0,0,0,.4,1c.21.49.56,1.29.76,1.8s.48,1.14.61,1.41c.46,1,1.4,3.33,1.4,3.46s-3.67.13-8.16.13H47.67l.24-.54c.12-.3.37-.88.55-1.3l.87-2c.29-.68.67-1.58.84-2,.3-.77,1.14-2.74,1.66-3.91.17-.37.69-1.61,1.16-2.75s1-2.37,1.19-2.73a3.78,3.78,0,0,0,.32-.81,5.69,5.69,0,0,1,.39-1c.22-.47.53-1.17.7-1.56.29-.7.58-.93.58-.46M170.67,30.7a15.41,15.41,0,0,0-.67,1.58c0,.07-.33.87-.73,1.77-2.25,5-3.77,8.58-3.77,8.77a22.2,22.2,0,0,0,3.3.12h3.29l.48-1.12c.46-1.08,1.05-2.5,1.79-4.3.19-.45.52-1.21.74-1.68a5,5,0,0,0,.4-1,5.63,5.63,0,0,1,.45-1.11c.57-1.15.52-1.25-1.15-2.15a20.55,20.55,0,0,1-3.15-2.07c-.28-.21-.36-.11-1,1.23M204.37,36c-.3.13-1.53.48-2.75.78-2.56.62-2.39.54-2.16,1,.1.2.42.93.72,1.62s.77,1.76,1.06,2.38l.51,1.12h6.89l-.13-.46a38.11,38.11,0,0,0-1.61-3.68,12.09,12.09,0,0,1-.73-1.73,1.21,1.21,0,0,0-1.8-1"/><path id="path1" class="cls-2" d="M313.74.1c-7.85,1.11-12.41,5.54-12.41,12.09,0,5,2.54,8.44,7.69,10.48a52.93,52.93,0,0,0,7.23,2.1,28.53,28.53,0,0,1,6,2.06c3.78,1.9,4.54,6.12,1.62,9-2.33,2.27-6.45,2.9-11.23,1.71-1.84-.45-2.34-.67-6.92-3.05a4.59,4.59,0,0,0-4.82,1.09c-.29.32-.65.7-.82.85-.4.38-.36.64.17,1.11,7.25,6.44,18.6,8,26.63,3.63a16.64,16.64,0,0,0,3.54-3.66c.19-.38.43-.83.52-1,1.29-2.45,1.51-7.43.41-9.55a1.94,1.94,0,0,1-.22-.6,13.69,13.69,0,0,0-2.53-3.08,5.14,5.14,0,0,1-.64-.49,15.06,15.06,0,0,0-1.85-1.13,37.79,37.79,0,0,0-7.9-2.69c-6.18-1.38-9.17-2.95-10.07-5.31A4.4,4.4,0,0,1,308,10.1c1.55-4.81,8.37-5.91,15.67-2.53,2.24,1,3.33,1.06,4.92.07.78-.49,2.13-2.11,2-2.43a7.51,7.51,0,0,0-1.79-1.38,6.76,6.76,0,0,1-.74-.46,14.18,14.18,0,0,0-1.87-1.08A26.82,26.82,0,0,0,313.74.1M239,.59a5,5,0,0,0-2.4,1.46c-.94,1.12-.93,1-.94,14.81,0,14-.06,14.89-.94,16.76-2.57,5.4-9.06,5.72-14,.68l-1.37-1.4L218.13,34c-.67.58-1.33,1.17-1.47,1.33a2.93,2.93,0,0,1-.59.46c-.9.48-.86,1,.17,2.33,6.27,7.85,19.76,7.4,24-.79,1.65-3.21,1.67-3.52,1.74-21.38L242,.44l-1.21,0a14.18,14.18,0,0,0-1.8.13m31.89,0a4.68,4.68,0,0,0-2.22,1.33,15,15,0,0,0-1.4,2.68c-.61,1.45-1.48,3.46-1.69,3.91-.13.28-.65,1.48-1.17,2.67-.93,2.17-1.61,3.74-3.24,7.5-.48,1.1-1,2.23-1.08,2.5l-.84,1.92-1.59,3.66c-.21.51-.59,1.37-.84,1.92s-.56,1.26-.7,1.58c-.66,1.56-2,4.71-2.49,5.75l-.8,1.84c-.15.36-.63,1.45-1.05,2.41s-.82,2-.88,2.21l-.1.46h6.54l.31-.71c.17-.39.5-1.16.73-1.71l.92-2.16c.28-.64.82-2,1.2-2.92s.82-2,1-2.29l.27-.54h20.89l.2.54c.12.3.44,1.07.71,1.71.54,1.27,1,2.49,1.63,3.91.21.51.54,1.3.75,1.75s.47,1.1.59,1.42c.38,1,.24,1,3.93,1a17.9,17.9,0,0,0,3.39-.15,12.57,12.57,0,0,0-.6-1.54c-.33-.77-1-2.26-1.43-3.31s-1-2.22-1.13-2.58l-.83-1.92c-.29-.69-.67-1.55-.83-1.92s-.54-1.22-.84-1.91-.63-1.48-.76-1.75c-.34-.76-1.79-4.11-2.65-6.17-.43-1-.95-2.21-1.16-2.67-.33-.7-1-2.26-1.6-3.66-.25-.58-1.36-3.14-1.67-3.84-.16-.36-.65-1.49-1.08-2.5s-1-2.2-1.17-2.66C277.74,5.6,277,3.87,276.65,3c-.07-.18-.36-.84-.63-1.45l-.5-1.13-2,0a23.54,23.54,0,0,0-2.66.14m87.39,0a4.16,4.16,0,0,0-1.18.53c-1,.7-1.26,1.08-2.77,4.54l-.63,1.42c-.19.41-.58,1.31-.87,2s-.66,1.55-.83,1.91c-.36.81-1.76,4-2.79,6.42-.41,1-1.13,2.61-1.59,3.67l-1.05,2.41c-.9,2.12-1.47,3.43-1.74,4-.17.37-.69,1.57-1.17,2.67s-1,2.23-1.08,2.5-.51,1.14-.84,1.92l-.83,1.91-1.69,3.92c-.13.32-.43,1-.65,1.43a6.46,6.46,0,0,0-.4,1c0,.25,6.71,0,6.85-.23s.33-.74.57-1.34l.84-2,.84-2,.66-1.54c.13-.27.38-.87.57-1.33s.44-1,.55-1.29l.2-.46h20.88l.2.54c.12.3.35.86.52,1.25a5.4,5.4,0,0,1,.32.8,7.5,7.5,0,0,0,.39,1c.44,1,1,2.34,1.65,3.86.22.55.59,1.43.81,2l.4,1h3.46c2.81,0,3.45,0,3.45-.23a47.82,47.82,0,0,0-1.91-4.52c-.13-.27-.47-1.06-.75-1.75s-.66-1.55-.83-1.92-.69-1.56-1.16-2.66l-1.16-2.67c-.17-.37-.55-1.23-.85-1.92s-.63-1.47-.76-1.75c-.28-.62-1.62-3.71-2.74-6.33-.47-1.1-1-2.3-1.16-2.67s-.54-1.22-.84-1.91-.68-1.57-.85-2c-.58-1.29-.93-2.1-2.24-5.13-.11-.27-.45-1.06-.75-1.75s-.66-1.55-.83-1.91l-.88-2L363,.52,361,.5a17.14,17.14,0,0,0-2.69.12M360,8.32l.62,1.5c.6,1.4,1.73,4.13,2.42,5.79.2.5.55,1.31.76,1.79a7.71,7.71,0,0,1,.4,1,2.72,2.72,0,0,0,.26.62c.15.28.42.88.6,1.34.79,2,1,2.4,1.55,3.75.34.78.68,1.6.75,1.83s.19.55.25.71-.33.29-8,.29h-8.1l.4-.87c.22-.49.64-1.44.93-2.13l.76-1.75c.12-.27.48-1.14.8-1.92s.81-2,1.11-2.66.68-1.63.86-2.09a4.85,4.85,0,0,1,.49-1,.61.61,0,0,0,.15-.37,3.71,3.71,0,0,1,.32-.93l.85-2c.29-.68.71-1.64.93-2.12A5,5,0,0,0,359.5,8c0-.42.24-.27.47.3m-87.31.5c.58,1.33,1.07,2.51,2,4.79.47,1.14.95,2.31,1.07,2.58s.46,1.06.75,1.75l.84,2c.29.67.65,1.55,1.66,4,.17.41.5,1.21.74,1.77a10.26,10.26,0,0,1,.44,1.13c0,.05-3.61.1-8,.1h-8l.11-.37a29.31,29.31,0,0,1,1.24-3,7.14,7.14,0,0,0,.34-.88,7.2,7.2,0,0,1,.32-.79c.34-.75,1.14-2.62,1.77-4.13.83-2,1.31-3.11,1.58-3.75.16-.36.49-1.15.74-1.75,1.38-3.34,1.82-4.33,1.94-4.33a3.07,3.07,0,0,1,.48.88"/><path id="path2" class="cls-3" d="M214.58,19.22a8.3,8.3,0,0,0-2,1.5c-.2.18-.54.45-.75.61l-1.38,1a12.27,12.27,0,0,1-1.34.92c-.18.09-.74.42-1.25.73-6.67,4.1-16.67,5.12-26.08,2.66-.82-.21-1.94-.47-2.48-.56-2.06-.37-4-1.58-4.64-2.84l-.39-.84-.54,1.25c-.73,1.7-.49,2.79.77,3.49a1.15,1.15,0,0,1,.36.27,5.23,5.23,0,0,0,.75.47l.92.5.75.42c.49.27,2.7,1.35,4,1.95a3.65,3.65,0,0,0,.84.32,3.9,3.9,0,0,1,.86.33,3.65,3.65,0,0,0,.9.33,11,11,0,0,1,1.47.42,26.57,26.57,0,0,0,5.14,1.25l2.74.33a22.66,22.66,0,0,0,13.21-2.53,9.72,9.72,0,0,0,1.26-.74,1,1,0,0,1,.38-.23,27.25,27.25,0,0,0,4.51-3.76,24,24,0,0,0,4.11-5.22c.22-.74-.29-2-.81-2a3.46,3.46,0,0,1-.62-.07,2.16,2.16,0,0,0-.67,0"/><path id="path3" class="cls-4" d="M176.17,24.85a1.44,1.44,0,0,0,.5.34c.27.14.5.22.5.18s-.23-.2-.5-.35-.5-.22-.5-.17"/><path id="path4" class="cls-4" d="M-11.5-17.39"/></svg>